<svg width="54" height="54" viewBox="0 0 54 54" fill="none" xmlns="http://www.w3.org/2000/svg">
<rect x="0.523926" y="0.837891" width="53.3333" height="52.9784" rx="26.4892" fill="black"/>
<path d="M39.2271 19.4157C37.0253 17.7204 34.3831 16.8727 31.5941 16.7314L31.1537 17.1553C33.6491 17.7204 35.851 18.8505 37.906 20.4046C35.4106 19.1331 32.6216 18.2855 29.6858 18.0029C28.8051 17.8616 28.0711 17.8616 27.1904 17.8616C26.3097 17.8616 25.5757 17.8616 24.695 18.0029C21.7592 18.2855 18.9702 19.1331 16.4748 20.4046C18.5298 18.8505 20.7317 17.7204 23.2271 17.1553L22.7867 16.7314C19.9977 16.8727 17.3555 17.7204 15.1537 19.4157C12.6583 23.9366 11.3372 29.0225 11.1904 34.2496C13.3922 36.51 16.4748 37.9228 19.7042 37.9228C19.7042 37.9228 20.7317 36.7926 21.4656 35.8036C19.5574 35.3799 17.7959 34.3909 16.6216 32.8369C17.6491 33.4019 18.6766 33.9671 19.7042 34.3909C21.0253 34.956 22.3464 35.2386 23.6675 35.5211C24.8418 35.6623 26.0161 35.8036 27.1904 35.8036C28.3647 35.8036 29.539 35.6623 30.7133 35.5211C32.0344 35.2386 33.3555 34.956 34.6766 34.3909C35.7042 33.9671 36.7317 33.4019 37.7592 32.8369C36.5849 34.3909 34.8234 35.3799 32.9152 35.8036C33.6491 36.7926 34.6766 37.9228 34.6766 37.9228C37.906 37.9228 40.9886 36.51 43.1904 34.2496C43.0436 29.0225 41.7225 23.9366 39.2271 19.4157ZM22.3464 31.7066C20.8785 31.7066 19.5574 30.4351 19.5574 28.8812C19.5574 27.3271 20.8785 26.0556 22.3464 26.0556C23.8143 26.0556 25.1354 27.3271 25.1354 28.8812C25.1354 30.4351 23.8143 31.7066 22.3464 31.7066ZM32.0344 31.7066C30.5665 31.7066 29.2454 30.4351 29.2454 28.8812C29.2454 27.3271 30.5665 26.0556 32.0344 26.0556C33.5023 26.0556 34.8234 27.3271 34.8234 28.8812C34.8234 30.4351 33.5023 31.7066 32.0344 31.7066Z" fill="white"/>
</svg>
