<svg width="55" height="54" viewBox="0 0 55 54" fill="none" xmlns="http://www.w3.org/2000/svg">
<rect x="0.476074" y="0.837891" width="54.2857" height="52.9784" rx="26.4892" fill="black"/>
<path d="M27.6188 16.4761C31.216 16.4761 31.7066 16.4761 33.1782 16.4761C34.4863 16.4761 35.1403 16.7953 35.6308 16.9548C36.2849 17.274 36.7754 17.4336 37.266 17.9123C37.7565 18.391 38.0835 18.8697 38.247 19.508C38.4105 19.9867 38.574 20.625 38.7376 21.9016C38.7376 23.3378 38.7376 23.6569 38.7376 27.3271C38.7376 30.9973 38.7376 31.3165 38.7376 32.7526C38.7376 34.0292 38.4105 34.6675 38.247 35.1462C37.92 35.7845 37.7565 36.2632 37.266 36.742C36.7754 37.2207 36.2849 37.5398 35.6308 37.6994C35.1403 37.859 34.4863 38.0185 33.1782 38.1781C31.7066 38.1781 31.3796 38.1781 27.6188 38.1781C23.858 38.1781 23.531 38.1781 22.0594 38.1781C20.7513 38.1781 20.0973 37.859 19.6067 37.6994C18.9527 37.3803 18.4622 37.2207 17.9716 36.742C17.4811 36.2632 17.1541 35.7845 16.9906 35.1462C16.8271 34.6675 16.6635 34.0292 16.5 32.7526C16.5 31.3165 16.5 30.9973 16.5 27.3271C16.5 23.6569 16.5 23.3378 16.5 21.9016C16.5 20.625 16.8271 19.9867 16.9906 19.508C17.3176 18.8697 17.4811 18.391 17.9716 17.9123C18.4622 17.4336 18.9527 17.1144 19.6067 16.9548C20.0973 16.7953 20.7513 16.6357 22.0594 16.4761C23.531 16.4761 24.0215 16.4761 27.6188 16.4761ZM27.6188 14.0825C23.858 14.0825 23.531 14.0825 22.0594 14.0825C20.5878 14.0825 19.6067 14.4017 18.7892 14.7208C17.9716 15.04 17.1541 15.5187 16.3365 16.3166C15.519 17.1144 15.1919 17.7527 14.7014 18.7102C14.3744 19.508 14.2109 20.4655 14.0474 21.9016C14.0474 23.3378 14.0474 23.8165 14.0474 27.3271C14.0474 30.9973 14.0474 31.3165 14.0474 32.7526C14.0474 34.1888 14.3744 35.1462 14.7014 35.9441C15.0284 36.742 15.519 37.5398 16.3365 38.3377C17.1541 39.1356 17.8081 39.4547 18.7892 39.9334C19.6067 40.2526 20.5878 40.4122 22.0594 40.5717C23.531 40.5717 24.0215 40.5717 27.6188 40.5717C31.216 40.5717 31.7066 40.5717 33.1782 40.5717C34.6498 40.5717 35.6308 40.2526 36.4484 39.9334C37.266 39.6143 38.0835 39.1356 38.9011 38.3377C39.7186 37.5398 40.0456 36.9015 40.5362 35.9441C40.8632 35.1462 41.0267 34.1888 41.1902 32.7526C41.1902 31.3165 41.1902 30.8377 41.1902 27.3271C41.1902 23.8165 41.1902 23.3378 41.1902 21.9016C41.1902 20.4655 40.8632 19.508 40.5362 18.7102C40.2092 17.9123 39.7186 17.1144 38.9011 16.3166C38.0835 15.5187 37.4295 15.1995 36.4484 14.7208C35.6308 14.4017 34.6498 14.2421 33.1782 14.0825C31.7066 14.0825 31.3796 14.0825 27.6188 14.0825Z" fill="white"/>
<path d="M27.6188 20.4655C23.6945 20.4655 20.5878 23.4974 20.5878 27.3271C20.5878 31.1569 23.6945 34.1888 27.6188 34.1888C31.5431 34.1888 34.6498 31.1569 34.6498 27.3271C34.6498 23.4974 31.5431 20.4655 27.6188 20.4655ZM27.6188 31.7952C25.1661 31.7952 23.0405 29.8803 23.0405 27.3271C23.0405 24.9335 25.0026 22.8591 27.6188 22.8591C30.0715 22.8591 32.1971 24.7739 32.1971 27.3271C32.1971 29.7207 30.0715 31.7952 27.6188 31.7952Z" fill="white"/>
<path d="M34.8133 21.9016C35.7163 21.9016 36.4484 21.1872 36.4484 20.3059C36.4484 19.4246 35.7163 18.7102 34.8133 18.7102C33.9102 18.7102 33.1782 19.4246 33.1782 20.3059C33.1782 21.1872 33.9102 21.9016 34.8133 21.9016Z" fill="white"/>
</svg>
