<svg width="54" height="53" viewBox="0 0 54 53" fill="none" xmlns="http://www.w3.org/2000/svg">
<rect x="0.285645" width="53.3333" height="52.9784" rx="26.4892" fill="black"/>
<path d="M28.2623 35.7602C18.2403 35.7602 12.5238 28.7998 12.2856 17.2178H17.3058C17.4707 25.7187 21.1718 29.3195 24.1033 30.062V17.2178H28.8303V24.5494C31.7252 24.2338 34.7666 20.8929 35.7926 17.2178H40.5197C40.133 19.1238 39.3623 20.9285 38.2558 22.5189C37.1492 24.1094 35.7306 25.4515 34.0887 26.4612C35.9215 27.3837 37.5403 28.6896 38.8383 30.2925C40.1364 31.8954 41.0841 33.759 41.619 35.7602H36.4156C35.9354 34.022 34.9595 32.466 33.6102 31.2873C32.2608 30.1085 30.5981 29.3595 28.8303 29.1339V35.7602H28.2623Z" fill="white"/>
</svg>
