<svg width="54" height="54" viewBox="0 0 54 54" fill="none" xmlns="http://www.w3.org/2000/svg">
<rect x="0.619141" y="0.837891" width="53.3333" height="52.9784" rx="26.4892" fill="black"/>
<path d="M37.8551 16.814C35.2209 14.2064 31.7087 12.7578 28.0014 12.7578C20.2941 12.7578 14.0502 18.9386 14.0502 26.5681C14.0502 28.9825 14.7331 31.3968 15.9039 33.4249L13.9526 40.5715L21.3673 38.64C23.4161 39.7023 25.66 40.2818 28.0014 40.2818C35.7087 40.2818 41.9526 34.1009 41.9526 26.4715C41.8551 22.8982 40.4892 19.4215 37.8551 16.814ZM34.7331 31.4934C34.4404 32.266 33.0746 33.0386 32.3917 33.1352C31.8063 33.2318 31.0258 33.2318 30.2453 33.0386C29.7575 32.8455 29.0746 32.6523 28.2941 32.266C24.7819 30.8174 22.538 27.3407 22.3429 27.0509C22.1478 26.8578 20.8795 25.216 20.8795 23.4777C20.8795 21.7393 21.7575 20.9667 22.0502 20.5804C22.3429 20.1941 22.7331 20.1941 23.0258 20.1941C23.2209 20.1941 23.5136 20.1941 23.7087 20.1941C23.9039 20.1941 24.1965 20.0975 24.4892 20.7736C24.7819 21.4496 25.4648 23.1879 25.5624 23.2845C25.66 23.4777 25.66 23.6708 25.5624 23.864C25.4648 24.0571 25.3673 24.2503 25.1721 24.4434C24.977 24.6366 24.7819 24.9263 24.6843 25.0229C24.4892 25.216 24.2941 25.4092 24.4892 25.6989C24.6843 26.0852 25.3673 27.1475 26.4404 28.1133C27.8063 29.2722 28.8795 29.6585 29.2697 29.8516C29.66 30.0448 29.8551 29.9482 30.0502 29.7551C30.2453 29.5619 30.9282 28.7893 31.1234 28.403C31.3185 28.0167 31.6112 28.1133 31.9039 28.2099C32.1965 28.3064 33.9526 29.1756 34.2453 29.3688C34.6356 29.5619 34.8307 29.6585 34.9282 29.7551C35.0258 30.0448 35.0258 30.7208 34.7331 31.4934Z" fill="white"/>
</svg>
